<svg
	className="h-7 w-7 text-white"
	xmlns="http://www.w3.org/2000/svg"
	 viewBox="0 0 512 512">
<g>
	<g>
		<path d="M256,0C154.739,0,72.348,82.386,72.348,183.652c0,70.241,18.514,94.635,169.771,320.929
			C245.217,509.217,250.424,512,256,512s10.782-2.783,13.881-7.418c151.251-226.216,169.771-251.423,169.771-320.929
			C439.652,82.386,357.261,0,256,0z M256,267.13c-46.032,0-83.478-37.446-83.478-83.478c0-46.032,37.446-83.478,83.478-83.478
			s83.478,37.446,83.478,83.478C339.478,229.684,302.032,267.13,256,267.13z"
			fill="currentColor"
		/>
	</g>
</g>
</svg>